# xmcd
#
# Track frame offsets: 
#        150
#        27127
#        46160
#        62504
#        83371
#        104172
#        130130
#        153400
#        165870
#        182336
#        199374
#
# Disc length: 2851 seconds
#
# Revision: 1
# Processed by: cddbd v1.5.2PL0 Copyright (c) Steve Scherf et al.
# Submitted via: ExactAudioCopyFreeDBPlugin 1.0
#
DISCID=7e0b210b
DTITLE=Chocolate Milk - Comin'
DYEAR=1976
DGENRE=Funk
TTITLE0=Comin'
TTITLE1=Something New
TTITLE2=Do Unto Others
TTITLE3=Fell The Need
TTITLE4=With All Our Love
TTITLE5=Starbright
TTITLE6=I Refuse
TTITLE7=Island Love
TTITLE8=Something New (7")
TTITLE9=Comin' (7")
TTITLE10=Starbright (7")
EXTD=
EXTT0=
EXTT1=
EXTT2=
EXTT3=
EXTT4=
EXTT5=
EXTT6=
EXTT7=
EXTT8=
EXTT9=
EXTT10=
PLAYORDER=
